/* XPM */
static char *c9a620f359754659d96bcd2dc849d202[] = {
/* columns rows colors chars-per-pixel */
"16 16 37 1 ",
"  c #B28247",
". c #B4844A",
"X c #B8894F",
"o c #BF9152",
"O c #C79A59",
"+ c #CB9F5B",
"@ c #CC9F5A",
"# c #C89C5D",
"$ c #CA9D5C",
"% c #CC9F5C",
"& c #D2A55F",
"* c #E8AF42",
"= c #E6B047",
"- c #E8B041",
"; c #E8B146",
": c #EBB447",
"> c #EFB847",
", c #E7B048",
"< c #EBB54B",
"1 c #EDB64A",
"2 c #EDB84D",
"3 c #ECB952",
"4 c #EDB952",
"5 c #E5B65E",
"6 c #EBBB5D",
"7 c #F0BE58",
"8 c #F1BF59",
"9 c #D1A460",
"0 c #D2A661",
"q c #D6AA60",
"w c #D7AA60",
"e c #D7AA61",
"r c #D8AC62",
"t c #E6B964",
"y c #E9BB61",
"u c #EDBD60",
"i c None",
/* pixels */
"iiiiiiiiiiiiiiii",
"iiiiiiiiiiiiiiii",
"iiiiiiiiiiiiiiii",
"iiiiiiiiiiiiiiii",
"iiiiii&wOiiiiiii",
"iiiii$8:80iiiiii",
"iiiii 5;*6Xiiiii",
"iiiiiir1=3+iiiii",
"iiiiii02=4%iiiii",
"iiiiiiw<*y.iiiii",
"iiiiiit>6#iiiiii",
"iiiiii@wOiiiiiii",
"iiiiiiiiiiiiiiii",
"iiiiiiiiiiiiiiii",
"iiiiiiiiiiiiiiii",
"iiiiiiiiiiiiiiii"
};
