/* XPM */
static char *_e3a611df47040ecb2709248af075998[] = {
/* columns rows colors chars-per-pixel */
"64 64 252 2 ",
"   c #833C00",
".  c #843D00",
"X  c #843E00",
"o  c #853E00",
"O  c #853F00",
"+  c #854000",
"@  c #864000",
"#  c #864100",
"$  c #874100",
"%  c #874200",
"&  c #884200",
"*  c #884300",
"=  c #884400",
"-  c #894400",
";  c #894500",
":  c #8A4500",
">  c #894600",
",  c #894601",
"<  c #8A4600",
"1  c #8A4700",
"2  c #8B4700",
"3  c #8B4601",
"4  c #8B4701",
"5  c #8B4702",
"6  c #8B4800",
"7  c #8B4802",
"8  c #8C4800",
"9  c #8D4A00",
"0  c #8D4B01",
"q  c #8C4802",
"w  c #8C4902",
"e  c #8C4903",
"r  c #8E4C02",
"t  c #8F4D03",
"y  c #8C4A05",
"u  c #8F4D08",
"i  c #904E04",
"p  c #904E05",
"a  c #914F07",
"s  c #904E08",
"d  c #904F0A",
"f  c #914F0A",
"g  c #915006",
"h  c #925108",
"j  c #91500A",
"k  c #93530A",
"l  c #93530C",
"z  c #95560E",
"x  c #975810",
"c  c #975911",
"v  c #975812",
"b  c #975913",
"n  c #975915",
"m  c #9D621D",
"M  c #9E621F",
"N  c #9F631F",
"B  c #A26824",
"V  c #A36A25",
"C  c #A36A29",
"Z  c #A66D29",
"A  c #A56E2C",
"S  c #A7702E",
"D  c #A9712D",
"F  c #A8712F",
"G  c #A97330",
"H  c #AB7430",
"J  c #AB7536",
"K  c #AB7739",
"L  c #AF7C3B",
"P  c #B17F3F",
"I  c #B17F41",
"U  c #B3803E",
"Y  c #E6AC3C",
"T  c #E6AD3E",
"R  c #B28145",
"E  c #B48349",
"W  c #BC9059",
"Q  c #BD9258",
"!  c #BF925A",
"~  c #BF945C",
"^  c #C2965D",
"/  c #E6AE40",
"(  c #E7AE40",
")  c #E7AF40",
"_  c #E6AE41",
"`  c #E7AE41",
"'  c #E7AF41",
"]  c #E7AE42",
"[  c #E7AF42",
"{  c #E7AF44",
"}  c #E8AF41",
"|  c #E8AF43",
" . c #E7B046",
".. c #E7B047",
"X. c #E8B043",
"o. c #E8B044",
"O. c #E8B045",
"+. c #E8B145",
"@. c #E8B146",
"#. c #E8B247",
"$. c #E7B048",
"%. c #E7B149",
"&. c #E7B24C",
"*. c #E7B34F",
"=. c #E8B248",
"-. c #E8B249",
";. c #E9B249",
":. c #E9B349",
">. c #E8B34A",
",. c #E9B34A",
"<. c #E9B34B",
"1. c #E9B34C",
"2. c #E8B34E",
"3. c #E9B44C",
"4. c #E9B758",
"5. c #E8B75A",
"6. c #E9B85A",
"7. c #E9B95B",
"8. c #E9B95D",
"9. c #EABA5C",
"0. c #EABB5F",
"q. c #C49B65",
"w. c #C69E69",
"e. c #C8A26D",
"r. c #C9A26F",
"t. c #CDA56C",
"y. c #CCA877",
"u. c #CEAA78",
"i. c #D2AE77",
"p. c #D2AF7C",
"a. c #EABB60",
"s. c #EABB61",
"d. c #E9BB62",
"f. c #EABC62",
"g. c #EABC63",
"h. c #EBBC63",
"j. c #E9BC65",
"k. c #EBBD64",
"l. c #EABD66",
"z. c #EABE69",
"x. c #ECC06B",
"c. c #EAC06F",
"v. c #EBC477",
"b. c #EEC574",
"n. c #EEC575",
"m. c #EDC577",
"M. c #EEC677",
"N. c #EFC778",
"B. c #EFC779",
"V. c #EDC67B",
"C. c #EFC87C",
"Z. c #EFC97D",
"A. c #F0CA7E",
"S. c #F0CA7F",
"D. c #D3B282",
"F. c #D3B383",
"G. c #D7B585",
"H. c #D6B684",
"J. c #D9BA8B",
"K. c #DCBC8B",
"L. c #D8BB8D",
"P. c #DABB8C",
"I. c #DABD91",
"U. c #DDBF90",
"Y. c #DCBF93",
"T. c #EFCD8A",
"R. c #F0CC82",
"E. c #F1CD85",
"W. c #F1CE88",
"Q. c #F2CE88",
"!. c #F1CF8A",
"~. c #F0CF8D",
"^. c #F3D18D",
"/. c #F1D08E",
"(. c #F2D18F",
"). c #E1C493",
"_. c #E0C59A",
"`. c #E1C79D",
"'. c #E3C99D",
"]. c #E5CB9D",
"[. c #E4CA9E",
"{. c #F4D492",
"}. c #F4D493",
"|. c #F5D799",
" X c #F5D89B",
".X c #F5D89D",
"XX c #F4D89E",
"oX c #F7DA9E",
"OX c #E4CAA1",
"+X c #E4CBA2",
"@X c #E5CDA4",
"#X c #E5CDA5",
"$X c #E7CFA7",
"%X c #E6CFA8",
"&X c #EAD4AD",
"*X c #EBD5AD",
"=X c #F6DAA1",
"-X c #F7DBA1",
";X c #F7DDA5",
":X c #F8DEA6",
">X c #F9DEA7",
",X c #F7DEA9",
"<X c #F7DEAB",
"1X c #ECD6B0",
"2X c #ECD8B2",
"3X c #EEDAB4",
"4X c #EFDBB6",
"5X c #F0DCB7",
"6X c #F1DEB9",
"7X c #F1DEBA",
"8X c #F8E0AC",
"9X c #FAE5B5",
"0X c #FBE5B5",
"qX c #FBE6B7",
"wX c #F3E0BC",
"eX c #F4E2BE",
"rX c #F4E3BF",
"tX c #FBE7B9",
"yX c #FAE6BA",
"uX c #FCE9BE",
"iX c #F4E3C0",
"pX c #F5E4C0",
"aX c #FCEAC0",
"sX c #FDEBC2",
"dX c #FDEBC3",
"fX c #F8E8C5",
"gX c #F9EAC6",
"hX c #F9EAC7",
"jX c #FAEAC7",
"kX c #FAEBC7",
"lX c #FBEBC7",
"zX c #FCEBC6",
"xX c #FDECC5",
"cX c #FDEDC6",
"vX c #FDEDC7",
"bX c #FAEBC8",
"nX c #FCEDC8",
"mX c #FDEDC8",
"MX c #FDEEC9",
"NX c #FCEDCA",
"BX c #FDEDCA",
"VX c #FDEECC",
"CX c #FDEFCC",
"ZX c #FDEFCE",
"AX c #FEF0CE",
"SX c #FEF1CF",
"DX c #FFF1CF",
"FX c #FFF2D0",
"GX c #FFF3D0",
"HX c #FFF3D1",
"JX c #FFF4D2",
"KX c None",
/* pixels */
"KXKXKXKXKXKXKXKXKXKXKXKXKXKXKXKXKXKXKXKXKXKXKXKXKXKXKXKXKXKXKXKXKXKXKXKXKXKXKXKXKXKXKXKXKXKXKXKXKXKXKXKXKXKXKXKXKXKXKXKXKXKXKXKX",
"KXKXKXKXKXKXKXKXKXKXKXKXKXKXKXKXKXKXKXKXKXKXKXKXKXKXKXKXKXKXKXKXKXKXKXKXKXKXKXKXKXKXKXKXKXKXKXKXKXKXKXKXKXKXKXKXKXKXKXKXKXKXKXKX",
"KXKXKXKXKXKXKXKXKXKXKXKXKXKXKXKXKXKXKXKXKXKXKXKXKXKXKXKXKXKXKXKXKXKXKXKXKXKXKXKXKXKXKXKXKXKXKXKXKXKXKXKXKXKXKXKXKXKXKXKXKXKXKXKX",
"KXKXKXKXKXKXKXKXKXKXKXKXKXKXKXKXKXKXKXKXKXKXKXKXKXKXKXKXKXKXKXKXKXKXKXKXKXKXKXKXKXKXKXKXKXKXKXKXKXKXKXKXKXKXKXKXKXKXKXKXKXKXKXKX",
"KXKXKXKXKXKXKXKXKXKXKXKXKXKXKXKXKXKXKXKXKXKXKXKXKXKXKXKXKXKXKXKXKXKXKXKXKXKXKXKXKXKXKXKXKXKXKXKXKXKXKXKXKXKXKXKXKXKXKXKXKXKXKXKX",
"KXKXKXKXKXKXKXKXKXKXKXKXKXKXKXKXKXKXKXKXKXKXKXKXKXKXKXKXKXKXKXKXKXKXKXKXKXKXKXKXKXKXKXKXKXKXKXKXKXKXKXKXKXKXKXKXKXKXKXKXKXKXKXKX",
"KXKXKXKXKXKXKXKXKXKXKXKXKXKXKXKXKXKXKXKXKXKXKXKXKXKXKXKXKXKXKXKXKXKXKXKXKXKXKXKXKXKXKXKXKXKXKXKXKXKXKXKXKXKXKXKXKXKXKXKXKXKXKXKX",
"KXKXKXKXKXKXKXKXKXKXKXKXKXKXKXKXKXKXKXKXKXKXKXKXKXKXKXKXKXKXKXKXKXKXKXKXKXKXKXKXKXKXKXKXKXKXKXKXKXKXKXKXKXKXKXKXKXKXKXKXKXKXKXKX",
"KXKXKXKXKXKXKXKXKXKXKXKXKXKXKXKXKXKXKXKXKXKXKXKXKXKXKXKXKXKXKXKXKXKXKXKXKXKXKXKXKXKXKXKXKXKXKXKXKXKXKXKXKXKXKXKXKXKXKXKXKXKXKXKX",
"KXKXKXKXKXKXKXKXKXKXKXKXKXKXKXKXKXKXKXKXKXKXKXKXKXKXKXKXKXKXKXKXKXKXKXKXKXKXKXKXKXKXKXKXKXKXKXKXKXKXKXKXKXKXKXKXKXKXKXKXKXKXKXKX",
"KXKXKXKXKXKXKXKXKXKXKXKXKXKXKXKXKXKXKXKXKXKXKXKXKXKXKXKXKXKXKXKXKXKXKXKXKXKXKXKXKXKXKXKXKXKXKXKXKXKXKXKXKXKXKXKXKXKXKXKXKXKXKXKX",
"KXKXKXKXKXKXKXKXKXKXKXKXKXKXKXKXKXKXKXKXKXKXKXKXKXKXKXKXKXKXKXKXKXKXKXKXKXKXKXKXKXKXKXKXKXKXKXKXKXKXKXKXKXKXKXKXKXKXKXKXKXKXKXKX",
"KXKXKXKXKXKXKXKXKXKXKXKXKXKXKXKXKXKXKXKXKXKXKXKXKXKXKXKXKXKXKXKXKXKXKXKXKXKXKXKXKXKXKXKXKXKXKXKXKXKXKXKXKXKXKXKXKXKXKXKXKXKXKXKX",
"KXKXKXKXKXKXKXKXKXKXKXKXKXKXKXKXKXKXKXKXKXKXKXKXKXKXKXKXKXKXKXKXKXKXKXKXKXKXKXKXKXKXKXKXKXKXKXKXKXKXKXKXKXKXKXKXKXKXKXKXKXKXKXKX",
"KXKXKXKXKXKXKXKXKXKXKXKXKXKXKXKXKXKXKXKXKXKXKXKXKXKXKXKXKXKXKXKXKXKXKXKXKXKXKXKXKXKXKXKXKXKXKXKXKXKXKXKXKXKXKXKXKXKXKXKXKXKXKXKX",
"KXKXKXKXKXKXKXKXKXKXKXKXKXKXKXKXKXKXKXKXKXKXKXKXKXKXKXKXKXKXKXKXKXKXKXKXKXKXKXKXKXKXKXKXKXKXKXKXKXKXKXKXKXKXKXKXKXKXKXKXKXKXKXKX",
"KXKXKXKXKXKXKXKXKXKXKXKXKXKXKXKXKXKXKXKXKXKXKXKXX & t z b z p - X + KXKXKXKXKXKXKXKXKXKXKXKXKXKXKXKXKXKXKXKXKXKXKXKXKXKXKXKXKXKX",
"KXKXKXKXKXKXKXKXKXKXKXKXKXKXKXKXKXKXKXKXKXKXe - L L.1XwXrXwX2X_.r.D e X KXKXKXKXKXKXKXKXKXKXKXKXKXKXKXKXKXKXKXKXKXKXKXKXKXKXKXKX",
"KXKXKXKXKXKXKXKXKXKXKXKXKXKXKXKXKXKXKXKXKX0 - p.JX8X!.b.b.B.E. XqXNX@XR - 7 KXKXKXKXKXKXKXKXKXKXKXKXKXKXKXKXKXKXKXKXKXKXKXKXKXKX",
"KXKXKXKXKXKXKXKXKXKXKXKXKXKXKXKXKXKXKXKXKX+ ~ JXz.' ' ' ' ' ' T o.h.XXSXH.u - KXKXKXKXKXKXKXKXKXKXKXKXKXKXKXKXKXKXKXKXKXKXKXKXKX",
"KXKXKXKXKXKXKXKXKXKXKXKXKXKXKXKXKXKXKXKXKXh 5X/.T <.<.<.<.3.,.,.<.` ' z.vX[.f 7 KXKXKXKXKXKXKXKXKXKXKXKXKXKXKXKXKXKXKXKXKXKXKXKX",
"KXKXKXKXKXKXKXKXKXKXKXKXKXKXKXKXKXKXKXKX+ V kXh.o.<.%.<.<.,.,.>.<.<.3.T 5.xXU.- KXKXKXKXKXKXKXKXKXKXKXKXKXKXKXKXKXKXKXKXKXKXKXKX",
"KXKXKXKXKXKXKXKXKXKXKXKXKXKXKXKXKXKXKXKXX Z NXh.X.<.<.+.<.<.,.,.,.+.<.,.` k.CX^ + KXKXKXKXKXKXKXKXKXKXKXKXKXKXKXKXKXKXKXKXKXKXKX",
"KXKXKXKXKXKXKXKXKXKXKXKXKXKXKXKXKXKXKXKXKXp *XXXX.,.,.<.<.<.,.,.,.<.<.<.1.` ~.pXn - KXKXKXKXKXKXKXKXKXKXKXKXKXKXKXKXKXKXKXKXKXKX",
"KXKXKXKXKXKXKXKXKXKXKXKXKXKXKXKXKXKXKXKXKXX R CXh.o.<.<.,.,.,.,.,.,.,.,.,.o.*.vXw.X KXKXKXKXKXKXKXKXKXKXKXKXKXKXKXKXKXKXKXKXKXKX",
"KXKXKXKXKXKXKXKXKXKXKXKXKXKXKXKXKXKXKXKXKXKX7 @X=X' <.<.,.,.,.,.,.,.,.,.<.<.T /.2Xh KXKXKXKXKXKXKXKXKXKXKXKXKXKXKXKXKXKXKXKXKXKX",
"KXKXKXKXKXKXKXKXKXKXKXKXKXKXKXKXKXKXKXKXKXKXX E NX7.X.<.,.,.,.,.,.,.,.,.,.,.+.h.NXJ X KXKXKXKXKXKXKXKXKXKXKXKXKXKXKXKXKXKXKXKXKX",
"KXKXKXKXKXKXKXKXKXKXKXKXKXKXKXKXKXKXKXKXKXKXKXh 5X!.T <.<.,.,.,.,.,.,.,.,.,.%.o.tXr.X KXKXKXKXKXKXKXKXKXKXKXKXKXKXKXKXKXKXKXKXKX",
"KXKXKXKXKXKXKXKXKXKXKXKXKXKXKXKXKXKXKXKXKXKXKXX y.0X+.<.<.<.,.,.,.,.,.,.,.,.3.'  X`.- KXKXKXKXKXKXKXKXKXKXKXKXKXKXKXKXKXKXKXKXKX",
"KXKXKXKXKXKXKXKXKXKXKXKXKXKXKXKXKXKXKXKXKXKXKXX K vX7.+.,.+.,.,.,.,.,.,.,.,.<.' S.5Xk KXKXKXKXKXKXKXKXKXKXKXKXKXKXKXKXKXKXKXKXKX",
"KXKXKXKXKXKXKXKXKXKXKXKXKXKXKXKXKXKXKXKXKXKXKXKXb rXb.X.,.,.,.,.,.,.+.,.<.<.<.` x.kXm + KXKXKXKXKXKXKXKXKXKXKXKXKXKXKXKXKXKXKXKX",
"KXKXKXKXKXKXKXKXKXKXKXKXKXKXKXKXKXKXKXKXKXKXKXKXe $X/.T ,.,.,.,.,.,.<.<.<.<.<.O.0.vXA X KXKXKXKXKXKXKXKXKXKXKXKXKXKXKXKXKXKXKXKX",
"KXKXKXKXKXKXKXKXKXKXKXKXKXKXKXKXKXKXKXKXKXKXKXKX& I.XX' ,.,.,.,.,.,.,.,.,.,.,.+.0.xXA X KXKXKXKXKXKXKXKXKXKXKXKXKXKXKXKXKXKXKXKX",
"KXKXKXKXKXKXKXKXKXKXKXKXKXKXKXKXKXKXKXKXKXKXKXKX+ F.:X' ,.,.,.,.,.,.,.,.,.,.<.+.h.bXB X KXKXKXKXKXKXKXKXKXKXKXKXKXKXKXKXKXKXKXKX",
"KXKXKXKXKXKXKXKXKXKXKXKXKXKXKXKXKXKXKXKXKXKXKXKX+ F.>X' 3.,.,.,.,.,.,.,.<.<.<.` b.rXx KXKXKXKXKXKXKXKXKXKXKXKXKXKXKXKXKXKXKXKXKX",
"KXKXKXKXKXKXKXKXKXKXKXKXKXKXKXKXKXKXKXKXKXKXKXKX& L.=X' ,.,.,.,.,.,.,.,.<.<.,.`  XOX8 KXKXKXKXKXKXKXKXKXKXKXKXKXKXKXKXKXKXKXKXKX",
"KXKXKXKXKXKXKXKXKXKXKXKXKXKXKXKXKXKXKXKXKXKXKXKXe @X{.' <.<.<.+.,.,.+.<.+.,.<.%.aXq.X KXKXKXKXKXKXKXKXKXKXKXKXKXKXKXKXKXKXKXKXKX",
"KXKXKXKXKXKXKXKXKXKXKXKXKXKXKXKXKXKXKXKXKXKXKXKXk 5XZ.' <.<.<.<.,.,.,.<.<.,.X.b.bXN + KXKXKXKXKXKXKXKXKXKXKXKXKXKXKXKXKXKXKXKXKX",
"KXKXKXKXKXKXKXKXKXKXKXKXKXKXKXKXKXKXKXKXKXKXKX+ C bXh.+.3.<.,.,.,.,.,.<.<.%.%.yXG.& KXKXKXKXKXKXKXKXKXKXKXKXKXKXKXKXKXKXKXKXKXKX",
"KXKXKXKXKXKXKXKXKXKXKXKXKXKXKXKXKXKXKXKXKXKXKXX W xX1.+.,.,.,.,.,.,.,.%.<.' T.kXm & KXKXKXKXKXKXKXKXKXKXKXKXKXKXKXKXKXKXKXKXKXKX",
"KXKXKXKXKXKXKXKXKXKXKXKXKXKXKXKXKXKXKXKXKXKXKX& U.:X' 1.<.<.,.,.,.,.%.,.` z.SX^ + KXKXKXKXKXKXKXKXKXKXKXKXKXKXKXKXKXKXKXKXKXKXKX",
"KXKXKXKXKXKXKXKXKXKXKXKXKXKXKXKXKXKXKXKXKXKX- b rXC.' 1.%.<.,.,.<.,.,.X.0.NXK.- KXKXKXKXKXKXKXKXKXKXKXKXKXKXKXKXKXKXKXKXKXKXKXKX",
"KXKXKXKXKXKXKXKXKXKXKXKXKXKXKXKXKXKXKXKXKXKXX I NX4.+.,.<.<.o.,.<.<.X.h.lX[.p 7 KXKXKXKXKXKXKXKXKXKXKXKXKXKXKXKXKXKXKXKXKXKXKXKX",
"KXKXKXKXKXKXKXKXKXKXKXKXKXKXKXKXKXKXKXKXKXKXX W uXo.<.3.<.<.,.,.X.X.v.SX).h - KXKXKXKXKXKXKXKXKXKXKXKXKXKXKXKXKXKXKXKXKXKXKXKXKX",
"KXKXKXKXKXKXKXKXKXKXKXKXKXKXKXKXKXKXKXKXKXKXX H GXv.T ` ` ` T O.k.<XSXt.e - KXKXKXKXKXKXKXKXKXKXKXKXKXKXKXKXKXKXKXKXKXKXKXKXKXKX",
"KXKXKXKXKXKXKXKXKXKXKXKXKXKXKXKXKXKXKXKXKXKXKX- i.JX<XE.S.R.}.qXVX'.D + y KXKXKXKXKXKXKXKXKXKXKXKXKXKXKXKXKXKXKXKXKXKXKXKXKXKXKX",
"KXKXKXKXKXKXKXKXKXKXKXKXKXKXKXKXKXKXKXKXKXKXKXe - U P.*X4X2X@Xu.G - + KXKXKXKXKXKXKXKXKXKXKXKXKXKXKXKXKXKXKXKXKXKXKXKXKXKXKXKXKX",
"KXKXKXKXKXKXKXKXKXKXKXKXKXKXKXKXKXKXKXKXKXKXKXKXKXX & t h h e X X KXKXKXKXKXKXKXKXKXKXKXKXKXKXKXKXKXKXKXKXKXKXKXKXKXKXKXKXKXKXKX",
"KXKXKXKXKXKXKXKXKXKXKXKXKXKXKXKXKXKXKXKXKXKXKXKXKXKXKXKXKXKXKXKXKXKXKXKXKXKXKXKXKXKXKXKXKXKXKXKXKXKXKXKXKXKXKXKXKXKXKXKXKXKXKXKX",
"KXKXKXKXKXKXKXKXKXKXKXKXKXKXKXKXKXKXKXKXKXKXKXKXKXKXKXKXKXKXKXKXKXKXKXKXKXKXKXKXKXKXKXKXKXKXKXKXKXKXKXKXKXKXKXKXKXKXKXKXKXKXKXKX",
"KXKXKXKXKXKXKXKXKXKXKXKXKXKXKXKXKXKXKXKXKXKXKXKXKXKXKXKXKXKXKXKXKXKXKXKXKXKXKXKXKXKXKXKXKXKXKXKXKXKXKXKXKXKXKXKXKXKXKXKXKXKXKXKX",
"KXKXKXKXKXKXKXKXKXKXKXKXKXKXKXKXKXKXKXKXKXKXKXKXKXKXKXKXKXKXKXKXKXKXKXKXKXKXKXKXKXKXKXKXKXKXKXKXKXKXKXKXKXKXKXKXKXKXKXKXKXKXKXKX",
"KXKXKXKXKXKXKXKXKXKXKXKXKXKXKXKXKXKXKXKXKXKXKXKXKXKXKXKXKXKXKXKXKXKXKXKXKXKXKXKXKXKXKXKXKXKXKXKXKXKXKXKXKXKXKXKXKXKXKXKXKXKXKXKX",
"KXKXKXKXKXKXKXKXKXKXKXKXKXKXKXKXKXKXKXKXKXKXKXKXKXKXKXKXKXKXKXKXKXKXKXKXKXKXKXKXKXKXKXKXKXKXKXKXKXKXKXKXKXKXKXKXKXKXKXKXKXKXKXKX",
"KXKXKXKXKXKXKXKXKXKXKXKXKXKXKXKXKXKXKXKXKXKXKXKXKXKXKXKXKXKXKXKXKXKXKXKXKXKXKXKXKXKXKXKXKXKXKXKXKXKXKXKXKXKXKXKXKXKXKXKXKXKXKXKX",
"KXKXKXKXKXKXKXKXKXKXKXKXKXKXKXKXKXKXKXKXKXKXKXKXKXKXKXKXKXKXKXKXKXKXKXKXKXKXKXKXKXKXKXKXKXKXKXKXKXKXKXKXKXKXKXKXKXKXKXKXKXKXKXKX",
"KXKXKXKXKXKXKXKXKXKXKXKXKXKXKXKXKXKXKXKXKXKXKXKXKXKXKXKXKXKXKXKXKXKXKXKXKXKXKXKXKXKXKXKXKXKXKXKXKXKXKXKXKXKXKXKXKXKXKXKXKXKXKXKX",
"KXKXKXKXKXKXKXKXKXKXKXKXKXKXKXKXKXKXKXKXKXKXKXKXKXKXKXKXKXKXKXKXKXKXKXKXKXKXKXKXKXKXKXKXKXKXKXKXKXKXKXKXKXKXKXKXKXKXKXKXKXKXKXKX",
"KXKXKXKXKXKXKXKXKXKXKXKXKXKXKXKXKXKXKXKXKXKXKXKXKXKXKXKXKXKXKXKXKXKXKXKXKXKXKXKXKXKXKXKXKXKXKXKXKXKXKXKXKXKXKXKXKXKXKXKXKXKXKXKX",
"KXKXKXKXKXKXKXKXKXKXKXKXKXKXKXKXKXKXKXKXKXKXKXKXKXKXKXKXKXKXKXKXKXKXKXKXKXKXKXKXKXKXKXKXKXKXKXKXKXKXKXKXKXKXKXKXKXKXKXKXKXKXKXKX",
"KXKXKXKXKXKXKXKXKXKXKXKXKXKXKXKXKXKXKXKXKXKXKXKXKXKXKXKXKXKXKXKXKXKXKXKXKXKXKXKXKXKXKXKXKXKXKXKXKXKXKXKXKXKXKXKXKXKXKXKXKXKXKXKX",
"KXKXKXKXKXKXKXKXKXKXKXKXKXKXKXKXKXKXKXKXKXKXKXKXKXKXKXKXKXKXKXKXKXKXKXKXKXKXKXKXKXKXKXKXKXKXKXKXKXKXKXKXKXKXKXKXKXKXKXKXKXKXKXKX",
"KXKXKXKXKXKXKXKXKXKXKXKXKXKXKXKXKXKXKXKXKXKXKXKXKXKXKXKXKXKXKXKXKXKXKXKXKXKXKXKXKXKXKXKXKXKXKXKXKXKXKXKXKXKXKXKXKXKXKXKXKXKXKXKX",
"KXKXKXKXKXKXKXKXKXKXKXKXKXKXKXKXKXKXKXKXKXKXKXKXKXKXKXKXKXKXKXKXKXKXKXKXKXKXKXKXKXKXKXKXKXKXKXKXKXKXKXKXKXKXKXKXKXKXKXKXKXKXKXKX"
};
