/* XPM */
static char *_e83f14a607e4972a668d97457b2a789[] = {
/* columns rows colors chars-per-pixel */
"32 32 110 2 ",
"   c #874203",
".  c #884402",
"X  c #894607",
"o  c #8E4D0B",
"O  c #955815",
"+  c #955816",
"@  c #995C17",
"#  c #965A18",
"$  c #995E1C",
"%  c #9B5F1E",
"&  c #9C6221",
"*  c #9C6322",
"=  c #9E652A",
"-  c #A0692A",
";  c #A16A2C",
":  c #A26B2D",
">  c #A26B2F",
",  c #A87437",
"<  c #A77238",
"1  c #AB783C",
"2  c #AA783D",
"3  c #E5A936",
"4  c #E5AB3A",
"5  c #E5AC3D",
"6  c #E6AD3F",
"7  c #E7AE3F",
"8  c #B4854D",
"9  c #B4864E",
"0  c #B5874E",
"q  c #B68852",
"w  c #BA8D54",
"e  c #BB8E55",
"r  c #BB8F57",
"t  c #BC915B",
"y  c #BE925B",
"u  c #BE935E",
"i  c #C0955E",
"p  c #C0965F",
"a  c #E5AD40",
"s  c #E6AD41",
"d  c #E6AE40",
"f  c #E7AE40",
"g  c #E6AE41",
"h  c #E6AE42",
"j  c #E6AF43",
"k  c #E7AF44",
"l  c #E7B045",
"z  c #E9B040",
"x  c #E9B143",
"c  c #E9B144",
"v  c #E9B145",
"b  c #EAB347",
"n  c #E8B249",
"m  c #EAB348",
"M  c #E8B24A",
"N  c #E8B34A",
"B  c #E9B34A",
"V  c #E8B34B",
"C  c #E9B34B",
"Z  c #EBB549",
"A  c #ECB64B",
"S  c #E9B34C",
"D  c #E9B44C",
"F  c #E9B44D",
"G  c #ECB74D",
"H  c #F0BE59",
"J  c #C29861",
"K  c #C49B66",
"L  c #C59D6A",
"P  c #CBA571",
"I  c #CEA873",
"U  c #D0AB76",
"Y  c #D2AE79",
"T  c #D3AE79",
"R  c #F1C05D",
"E  c #F1C15D",
"W  c #F1C05E",
"Q  c #F2C362",
"!  c #F2C465",
"~  c #F3C86F",
"^  c #F3C870",
"/  c #F3C973",
"(  c #F3CA75",
")  c #F3CB77",
"_  c #F4CA74",
"`  c #F2CB7B",
"'  c #F2CB7C",
"]  c #F4CD7E",
"[  c #F6D07E",
"{  c #D9B781",
"}  c #E1C087",
"|  c #E3C186",
" . c #E3C187",
".. c #E5C387",
"X. c #EAC886",
"o. c #EBC886",
"O. c #E0C18D",
"+. c #E9C88B",
"@. c #EBCB8D",
"#. c #F1CD88",
"$. c #F1CF89",
"%. c #F5D084",
"&. c #F9D689",
"*. c #F9D78D",
"=. c #EACA90",
"-. c #EDCD90",
";. c #EED29A",
":. c #F3D495",
">. c #F7D895",
",. c None",
/* pixels */
",.,.,.,.,.,.,.,.,.,.,.,.,.,.,.,.,.,.,.,.,.,.,.,.,.,.,.,.,.,.,.,.",
",.,.,.,.,.,.,.,.,.,.,.,.,.,.,.,.,.,.,.,.,.,.,.,.,.,.,.,.,.,.,.,.",
",.,.,.,.,.,.,.,.,.,.,.,.,.,.,.,.,.,.,.,.,.,.,.,.,.,.,.,.,.,.,.,.",
",.,.,.,.,.,.,.,.,.,.,.,.,.,.,.,.,.,.,.,.,.,.,.,.,.,.,.,.,.,.,.,.",
",.,.,.,.,.,.,.,.,.,.,.,.,.,.,.,.,.,.,.,.,.,.,.,.,.,.,.,.,.,.,.,.",
",.,.,.,.,.,.,.,.,.,.,.,.,.,.,.,.,.,.,.,.,.,.,.,.,.,.,.,.,.,.,.,.",
",.,.,.,.,.,.,.,.,.,.,.,.,.,.,.,.,.,.,.,.,.,.,.,.,.,.,.,.,.,.,.,.",
",.,.,.,.,.,.,.,.,.,.,.,.,.,.,.,.,.,.,.,.,.,.,.,.,.,.,.,.,.,.,.,.",
",.,.,.,.,.,.,.,.,.,.,.,.1 i J r , X ,.,.,.,.,.,.,.,.,.,.,.,.,.,.",
",.,.,.,.,.,.,.,.,.,.,.y >.~ ~ ) #.{ ; ,.,.,.,.,.,.,.,.,.,.,.,.,.",
",.,.,.,.,.,.,.,.,.,.* -.z g g 6 7 R ;.> ,.,.,.,.,.,.,.,.,.,.,.,.",
",.,.,.,.,.,.,.,.,.,.* +.N N N C N g H O.o ,.,.,.,.,.,.,.,.,.,.,.",
",.,.,.,.,.,.,.,.,.,.,.L _ g C C C D 6 %.q ,.,.,.,.,.,.,.,.,.,.,.",
",.,.,.,.,.,.,.,.,.,.,.= @.v C C N N v R T ,.,.,.,.,.,.,.,.,.,.,.",
",.,.,.,.,.,.,.,.,.,.,.,.Y R l C Z N n N | + ,.,.,.,.,.,.,.,.,.,.",
",.,.,.,.,.,.,.,.,.,.,.,.u / g C C N N v o.- ,.,.,.,.,.,.,.,.,.,.",
",.,.,.,.,.,.,.,.,.,.,.,.9 ` g C C C C z o.: ,.,.,.,.,.,.,.,.,.,.",
",.,.,.,.,.,.,.,.,.,.,.,.9 ' 7 S C C C Z | # ,.,.,.,.,.,.,.,.,.,.",
",.,.,.,.,.,.,.,.,.,.,.,.y ( g D C N g ! U ,.,.,.,.,.,.,.,.,.,.,.",
",.,.,.,.,.,.,.,.,.,.,.,.P Q g C C N 6 :.< ,.,.,.,.,.,.,.,.,.,.,.",
",.,.,.,.,.,.,.,.,.,.,.+  .G C D C 4 *.K ,.,.,.,.,.,.,.,.,.,.,.,.",
",.,.,.,.,.,.,.,.,.,.,.1 #.3 j 6 v *.P . ,.,.,.,.,.,.,.,.,.,.,.,.",
",.,.,.,.,.,.,.,.,.,.,.@  .[ ^ ] @.e   ,.,.,.,.,.,.,.,.,.,.,.,.,.",
",.,.,.,.,.,.,.,.,.,.,.,.% e i 0 $ ,.,.,.,.,.,.,.,.,.,.,.,.,.,.,.",
",.,.,.,.,.,.,.,.,.,.,.,.,.,.,.,.,.,.,.,.,.,.,.,.,.,.,.,.,.,.,.,.",
",.,.,.,.,.,.,.,.,.,.,.,.,.,.,.,.,.,.,.,.,.,.,.,.,.,.,.,.,.,.,.,.",
",.,.,.,.,.,.,.,.,.,.,.,.,.,.,.,.,.,.,.,.,.,.,.,.,.,.,.,.,.,.,.,.",
",.,.,.,.,.,.,.,.,.,.,.,.,.,.,.,.,.,.,.,.,.,.,.,.,.,.,.,.,.,.,.,.",
",.,.,.,.,.,.,.,.,.,.,.,.,.,.,.,.,.,.,.,.,.,.,.,.,.,.,.,.,.,.,.,.",
",.,.,.,.,.,.,.,.,.,.,.,.,.,.,.,.,.,.,.,.,.,.,.,.,.,.,.,.,.,.,.,.",
",.,.,.,.,.,.,.,.,.,.,.,.,.,.,.,.,.,.,.,.,.,.,.,.,.,.,.,.,.,.,.,.",
",.,.,.,.,.,.,.,.,.,.,.,.,.,.,.,.,.,.,.,.,.,.,.,.,.,.,.,.,.,.,.,."
};
